<?xml version="1.0" standalone="no"?>
<!DOCTYPE svg PUBLIC "-//W3C//DTD SVG 20010904//EN"
 "http://www.w3.org/TR/2001/REC-SVG-20010904/DTD/svg10.dtd">
<svg version="1.0" xmlns="http://www.w3.org/2000/svg"
 width="512.000000pt" height="512.000000pt" viewBox="0 0 512.000000 512.000000"
 preserveAspectRatio="xMidYMid meet">
<metadata>
Created by potrace 1.15, written by Peter Selinger 2001-2017
</metadata>
<g transform="translate(0.000000,512.000000) scale(0.100000,-0.100000)"
fill="#000000" stroke="none">
<path d="M350 5106 c-133 -37 -246 -134 -308 -263 l-37 -78 0 -2205 0 -2205
37 -78 c63 -131 167 -219 307 -261 50 -14 257 -16 2211 -16 1954 0 2161 2
2211 16 140 42 245 131 307 261 l37 78 0 2205 0 2205 -37 78 c-63 131 -177
227 -313 263 -71 19 -4346 19 -4415 0z m740 -1581 l0 -115 -205 0 -205 0 0
-90 0 -90 205 0 205 0 0 -115 0 -115 -205 0 -205 0 0 -185 0 -185 -120 0 -120
0 0 505 0 505 325 0 325 0 0 -115z m320 -247 c1 -270 4 -367 13 -379 53 -68
187 -72 242 -7 l25 30 0 359 0 359 126 0 125 0 -3 -387 -3 -388 -25 -50 c-69
-139 -237 -216 -423 -194 -136 17 -235 78 -292 180 l-30 54 -3 393 -3 392 126
0 125 0 0 -362z m964 110 l171 -247 3 250 2 249 120 0 120 0 0 -505 0 -505
-97 0 -98 1 -170 245 -170 245 -3 -246 -2 -245 -120 0 -120 0 0 505 0 506 96
-3 97 -3 171 -247z m851 4 l170 -247 3 248 2 247 125 0 125 0 0 -505 0 -505
-100 0 -99 0 -168 240 -168 241 -3 -241 -2 -240 -125 0 -125 0 0 505 0 505 98
0 97 0 170 -248z m798 161 c30 -49 69 -115 87 -148 18 -33 42 -75 53 -93 l20
-34 60 109 c33 59 80 141 104 181 l45 72 145 0 145 0 -23 -37 c-13 -21 -97
-154 -186 -297 l-163 -258 0 -209 0 -209 -125 0 -125 0 0 203 0 202 -190 303
-189 302 144 0 143 0 55 -87z m-1703 -1142 l0 -79 -87 -54 c-48 -30 -88 -59
-91 -66 -3 -9 21 -12 87 -12 l91 0 0 -65 0 -65 -271 0 -271 0 4 138 c3 130 5
141 30 179 33 49 80 73 148 73 47 0 129 -31 130 -49 1 -3 9 -16 20 -29 l19
-23 93 65 c51 36 94 65 96 66 1 0 2 -36 2 -79z m572 68 c130 -27 254 -120 316
-237 133 -249 46 -581 -184 -704 -93 -50 -147 -58 -401 -58 l-233 0 0 505 0
505 225 0 c124 0 248 -5 277 -11z m678 -494 l0 -505 -125 0 -125 0 0 505 0
505 125 0 125 0 0 -505z m730 385 l0 -120 -205 0 -205 0 0 -75 0 -75 205 0
205 0 0 -120 0 -120 -205 0 -205 0 0 -70 0 -70 208 -2 207 -3 3 -117 3 -118
-336 0 -335 0 0 505 0 505 330 0 330 0 0 -120z m-2148 -354 c56 -20 111 -69
144 -128 25 -46 29 -63 29 -133 0 -70 -4 -87 -30 -134 -31 -56 -88 -106 -148
-128 -56 -20 -156 -16 -212 11 -56 26 -116 87 -141 143 -22 50 -23 166 -2 214
24 55 87 119 143 145 58 27 156 32 217 10z"/>
<path d="M2635 2249 c-3 -8 -4 -131 -3 -274 l3 -260 95 0 c109 1 157 14 206
58 139 121 112 373 -49 455 -38 20 -67 26 -147 30 -79 4 -101 2 -105 -9z"/>
<path d="M2000 1899 c-88 -35 -127 -146 -77 -219 51 -76 122 -97 197 -58 54
28 82 72 82 133 0 106 -107 182 -202 144z"/>
</g>
</svg>
